<svg width="641" height="218" viewBox="0 0 641 218" fill="none" xmlns="http://www.w3.org/2000/svg">
<path d="M240.96 49.24C243.71 47.08 246.82 45.98 250.19 45.98C259.2 45.98 264.66 50.36 266.89 59.38L266.99 59.79H275.81L275.72 59.18C275.39 57.02 274.83 54.94 274.05 52.99C273.27 51.03 272.15 49.12 270.73 47.32C269.31 45.51 267.63 43.93 265.73 42.61C263.83 41.29 261.5 40.23 258.81 39.46C256.13 38.69 253.15 38.3 249.95 38.3C244.87 38.3 240.26 39.68 236.26 42.42C232.27 45.14 229.16 48.85 227.02 53.42C224.89 57.98 223.81 63.11 223.81 68.66C223.81 72.85 224.39 76.81 225.54 80.44C226.69 84.07 228.35 87.31 230.49 90.07C232.64 92.85 235.42 95.06 238.76 96.64C242.1 98.22 245.89 99.02 250.03 99.02C252.16 99.02 254.3 98.79 256.36 98.34C258.44 97.88 260.52 97.12 262.55 96.06C264.58 95 266.46 93.67 268.12 92.11C269.79 90.54 271.29 88.54 272.58 86.16C273.87 83.79 274.83 81.11 275.43 78.2L275.56 77.56H266.62L266.5 77.92C265.11 82.06 262.93 85.37 260.02 87.76C257.13 90.13 253.83 91.33 250.19 91.33C247.43 91.33 244.88 90.69 242.59 89.42C240.3 88.15 238.4 86.44 236.94 84.34C235.47 82.21 234.31 79.78 233.51 77.09C232.71 74.41 232.3 71.57 232.3 68.66C232.3 64.83 233.06 61.15 234.54 57.71C236.02 54.29 238.18 51.44 240.96 49.26V49.24Z" fill="black"/>
<path d="M329.11 47.18C326.6 44.46 323.48 42.27 319.84 40.68C316.2 39.09 312.23 38.29 308.04 38.29C302.46 38.29 297.41 39.67 293.03 42.39C288.66 45.11 285.26 48.81 282.93 53.39C280.61 57.96 279.43 63.09 279.43 68.64C279.43 74.19 280.61 79.33 282.93 83.89C285.26 88.47 288.66 92.17 293.03 94.89C297.4 97.61 302.45 98.99 308.04 98.99C312.23 98.99 316.2 98.19 319.84 96.6C323.48 95.01 326.6 92.83 329.11 90.1C331.61 87.38 333.61 84.13 335.03 80.42C336.45 76.72 337.17 72.75 337.17 68.63C337.17 64.51 336.45 60.54 335.03 56.84C333.61 53.14 331.62 49.88 329.11 47.16V47.18ZM308.04 91.38C304.01 91.38 300.44 90.32 297.43 88.24C294.41 86.15 292.11 83.38 290.61 80C289.1 76.6 288.33 72.78 288.33 68.64C288.33 64.5 289.1 60.68 290.61 57.28C292.11 53.9 294.41 51.14 297.43 49.06C300.44 46.99 304.01 45.94 308.04 45.94C312.07 45.94 315.69 46.99 318.8 49.06C321.92 51.14 324.31 53.91 325.9 57.3C327.51 60.71 328.32 64.52 328.32 68.63C328.32 72.74 327.51 76.56 325.9 79.98C324.3 83.38 321.91 86.16 318.8 88.24C315.69 90.31 312.07 91.36 308.04 91.36V91.38Z" fill="black"/>
<path d="M372.98 86.1L356.06 39.83H343.57V97.46H351.89V51.94L368.76 97.46H377.2L394.04 51.94V97.46H402.4V39.83H389.91L372.98 86.1Z" fill="black"/>
<path d="M440.6 86.1L423.68 39.83H411.18V97.46H419.5V51.94L436.38 97.46H444.82L461.65 51.94V97.46H470.01V39.83H457.52L440.6 86.1Z" fill="black"/>
<path d="M526.13 47.18C523.62 44.46 520.5 42.27 516.86 40.68C513.22 39.09 509.25 38.29 505.06 38.29C499.48 38.29 494.43 39.67 490.05 42.39C485.68 45.11 482.28 48.81 479.95 53.39C477.63 57.96 476.45 63.09 476.45 68.64C476.45 74.19 477.63 79.33 479.95 83.89C482.28 88.47 485.68 92.17 490.05 94.89C494.42 97.61 499.47 98.99 505.06 98.99C509.25 98.99 513.22 98.19 516.86 96.6C520.5 95.01 523.62 92.83 526.13 90.1C528.63 87.38 530.63 84.13 532.05 80.42C533.47 76.72 534.19 72.75 534.19 68.63C534.19 64.51 533.47 60.54 532.05 56.84C530.63 53.14 528.64 49.88 526.13 47.16V47.18ZM505.06 91.38C501.03 91.38 497.46 90.32 494.45 88.24C491.43 86.15 489.13 83.38 487.63 80C486.12 76.6 485.35 72.78 485.35 68.64C485.35 64.5 486.12 60.68 487.63 57.28C489.13 53.9 491.43 51.14 494.45 49.06C497.46 46.99 501.03 45.94 505.06 45.94C509.09 45.94 512.71 46.99 515.82 49.06C518.94 51.14 521.33 53.91 522.92 57.3C524.53 60.71 525.34 64.52 525.34 68.63C525.34 72.74 524.53 76.56 522.92 79.98C521.32 83.38 518.93 86.16 515.82 88.24C512.71 90.31 509.09 91.36 505.06 91.36V91.38Z" fill="black"/>
<path d="M579.14 85.08L550.16 39.83H540.66V97.42H548.98V52.16L577.97 97.42H587.46V39.83H579.14V85.08Z" fill="black"/>
<path d="M636.47 72.07C635.42 70.91 634.16 69.85 632.74 68.92C631.32 68 629.9 67.25 628.49 66.7C627.1 66.15 625.63 65.69 624.12 65.32L612.71 62.72C610.16 62.06 608.09 61.03 606.55 59.66C605.05 58.32 604.32 56.79 604.32 54.99C604.32 52.43 605.42 50.32 607.68 48.53C609.95 46.74 613.11 45.82 617.07 45.82C619.2 45.82 621.14 46.17 622.82 46.86C624.49 47.55 625.83 48.45 626.8 49.54C627.78 50.65 628.54 51.85 629.05 53.11C629.56 54.37 629.82 55.65 629.82 56.91V57.44H638.34V56.91C638.34 54.56 637.88 52.26 636.96 50.08C636.05 47.9 634.72 45.9 633.02 44.14C631.31 42.37 629.05 40.93 626.29 39.87C623.54 38.81 620.44 38.28 617.07 38.28C613.26 38.28 609.68 39.03 606.44 40.5C603.19 41.98 600.57 44.02 598.68 46.59C596.77 49.17 595.8 52.02 595.8 55.07C595.8 57.37 596.24 59.48 597.11 61.33C597.98 63.18 599.19 64.74 600.7 65.96C602.19 67.15 603.76 68.13 605.39 68.87C607.01 69.6 608.77 70.19 610.64 70.62L622.05 73.18C624.9 73.89 627.19 75 628.85 76.47C630.49 77.92 631.28 79.64 631.28 81.73C631.28 84.48 629.9 86.75 627.06 88.66C624.41 90.43 621.21 91.35 617.55 91.37H616.8C614.34 91.27 612.12 90.79 610.19 89.94C608.27 89.1 606.75 88.03 605.66 86.77C604.56 85.49 603.71 84.14 603.16 82.76C602.61 81.38 602.33 80 602.33 78.66V78.13H593.81V78.66C593.81 80.57 594.12 82.5 594.73 84.39C595.34 86.28 596.28 88.11 597.54 89.84C598.8 91.57 600.34 93.13 602.13 94.45C603.92 95.78 606.12 96.87 608.66 97.69C611.2 98.5 613.98 98.94 616.94 99H617.55C621.49 99 625.19 98.27 628.54 96.83C632.06 95.3 634.89 93.18 636.93 90.53C638.99 87.86 640.04 84.9 640.04 81.74C640.04 79.81 639.71 78 639.05 76.34C638.39 74.68 637.52 73.25 636.46 72.08L636.47 72.07Z" fill="black"/>
<path d="M266.05 154.38C265 153.22 263.74 152.16 262.32 151.23C260.91 150.31 259.48 149.56 258.07 149.01C256.68 148.47 255.21 148 253.7 147.63L242.29 145.03C239.74 144.37 237.67 143.34 236.13 141.97C234.63 140.63 233.9 139.1 233.9 137.3C233.9 134.74 235 132.63 237.26 130.84C239.53 129.05 242.69 128.13 246.65 128.13C248.78 128.13 250.72 128.48 252.4 129.17C254.07 129.86 255.41 130.76 256.38 131.85C257.36 132.96 258.12 134.16 258.64 135.42C259.15 136.68 259.41 137.96 259.41 139.22V139.75H267.93V139.22C267.93 136.87 267.47 134.57 266.55 132.39C265.64 130.21 264.31 128.21 262.62 126.45C260.91 124.68 258.65 123.24 255.89 122.18C253.14 121.12 250.04 120.59 246.66 120.59C242.85 120.59 239.27 121.34 236.03 122.81C232.78 124.29 230.16 126.33 228.27 128.9C226.36 131.48 225.39 134.34 225.39 137.38C225.39 139.68 225.83 141.79 226.7 143.64C227.57 145.49 228.78 147.05 230.29 148.27C231.78 149.46 233.35 150.44 234.98 151.18C236.6 151.91 238.36 152.5 240.23 152.93L251.64 155.49C254.49 156.2 256.77 157.31 258.44 158.78C260.08 160.23 260.87 161.95 260.87 164.04C260.87 166.79 259.49 169.06 256.65 170.97C254 172.74 250.8 173.66 247.14 173.68H246.39C243.93 173.58 241.71 173.1 239.78 172.25C237.86 171.41 236.34 170.34 235.25 169.08C234.15 167.8 233.31 166.45 232.75 165.07C232.2 163.7 231.92 162.31 231.92 160.97V160.44H223.4V160.97C223.4 162.88 223.71 164.81 224.32 166.7C224.93 168.59 225.87 170.42 227.13 172.15C228.39 173.88 229.93 175.43 231.72 176.76C233.51 178.09 235.71 179.18 238.25 180C240.78 180.81 243.57 181.25 246.54 181.31H247.15C251.09 181.31 254.79 180.58 258.14 179.14C261.66 177.61 264.49 175.49 266.53 172.84C268.59 170.17 269.64 167.21 269.64 164.05C269.64 162.12 269.31 160.31 268.65 158.65C267.99 156.99 267.12 155.56 266.06 154.39L266.05 154.38Z" fill="black"/>
<path d="M319.09 122.18H270.87V129.72H295.88C295.64 129.8 295.4 129.88 295.16 129.96C293.86 130.42 292.8 131.13 292.01 132.07C291.2 133.03 290.79 134.21 290.79 135.57V179.77H299.11V135.06C299.11 134.31 299.22 133.64 299.44 133.06C299.66 132.48 299.92 132.01 300.22 131.66C300.52 131.31 300.89 130.99 301.33 130.72C301.78 130.44 302.18 130.24 302.53 130.12C302.89 130 303.28 129.91 303.68 129.85C304.1 129.79 304.37 129.75 304.52 129.74C304.65 129.73 304.75 129.72 304.82 129.72H319.08V122.18H319.09Z" fill="black"/>
<path d="M344.18 122.18H329.52L310.53 179.77H319.35L324.98 162.85L349.04 162.81L354.83 179.77H363.61L344.29 122.54L344.17 122.18H344.18ZM346.53 155.59H327.4L336.83 127.22L346.53 155.59Z" fill="black"/>
<path d="M380.92 131.55C383.67 129.39 386.78 128.29 390.15 128.29C399.16 128.29 404.62 132.67 406.85 141.69L406.95 142.1H415.77L415.68 141.49C415.35 139.33 414.79 137.24 414.01 135.3C413.22 133.34 412.11 131.43 410.69 129.63C409.27 127.82 407.59 126.24 405.69 124.92C403.79 123.61 401.46 122.55 398.77 121.77C396.09 121 393.11 120.61 389.91 120.61C384.83 120.61 380.22 121.99 376.22 124.73C372.23 127.45 369.12 131.16 366.98 135.73C364.85 140.29 363.77 145.42 363.77 150.97C363.77 155.16 364.35 159.12 365.5 162.75C366.65 166.38 368.31 169.62 370.45 172.38C372.6 175.16 375.38 177.37 378.73 178.95C382.07 180.53 385.86 181.33 390 181.33C392.14 181.33 394.27 181.1 396.33 180.65C398.41 180.19 400.49 179.43 402.52 178.37C404.55 177.31 406.43 175.98 408.09 174.42C409.76 172.85 411.26 170.85 412.55 168.47C413.84 166.09 414.8 163.42 415.4 160.51L415.53 159.87H406.59L406.47 160.23C405.08 164.37 402.9 167.68 399.99 170.07C397.1 172.44 393.8 173.64 390.16 173.64C387.4 173.64 384.84 173 382.56 171.73C380.27 170.46 378.37 168.75 376.91 166.65C375.44 164.53 374.28 162.09 373.48 159.4C372.68 156.71 372.27 153.88 372.27 150.97C372.27 147.14 373.03 143.46 374.51 140.02C375.99 136.6 378.15 133.75 380.93 131.57L380.92 131.55Z" fill="black"/>
<path d="M440.56 151.52C439.85 151.79 439.01 152.2 438.04 152.75L471.36 122.14H459.61L430.06 150V122.14H421.74V179.77H430.06V160.1L433.52 156.91C433.57 156.87 433.62 156.84 433.67 156.8C435.45 155.59 437.46 155.21 439.7 155.73C442.04 156.23 444.09 157.59 445.78 159.78L460.4 179.76H471.3L452.87 155.23C449.5 150.94 445.37 149.67 440.55 151.51L440.56 151.52Z" fill="black"/>
<path d="M185.53 165.53C186.23 183.58 171.8 198.42 153.91 198.42C138.32 198.42 125.37 187.15 122.75 172.32C122.39 170.26 120.37 168.94 118.36 169.5C118.33 169.5 118.31 169.51 118.28 169.52C116.24 170.08 115.16 172.29 115.96 174.25C117.47 177.94 118.31 181.98 118.31 186.22C118.31 204.12 103.45 218.55 85.4 217.84C69.09 217.2 55.79 203.98 55.06 187.68C54.64 178.42 58.22 170 64.2 163.96C65.59 162.56 65.39 160.25 63.82 159.06C63.8 159.04 63.78 159.03 63.76 159.01C62.2 157.83 59.95 158.25 58.97 159.94C53.26 169.71 42.46 176.14 30.21 175.6C13.9 174.87 0.670003 161.57 0.030003 145.25C-0.679997 127.19 13.75 112.33 31.65 112.33C32.74 112.33 33.82 112.39 34.88 112.5C36.99 112.72 38.85 111.1 38.84 108.97V108.93V108.89C38.84 106.76 36.99 105.14 34.88 105.36C33.82 105.47 32.74 105.53 31.65 105.53C13.74 105.52 -0.689997 90.66 0.030003 72.6C0.670003 56.31 13.87 43.02 30.16 42.27C42.44 41.71 53.25 48.15 58.97 57.93C59.95 59.61 62.21 60.02 63.76 58.85L63.82 58.8C65.39 57.61 65.58 55.3 64.19 53.89C58.53 48.17 55.03 40.32 55.03 31.63C55.03 13.38 70.51 -1.27 89.06 0.0900014C104.48 1.22 116.96 13.6 118.21 29.01C118.63 34.22 117.79 39.18 115.96 43.63C115.16 45.58 116.24 47.8 118.28 48.36L118.36 48.38C120.37 48.93 122.39 47.62 122.75 45.57C125.36 30.73 138.32 19.45 153.91 19.45C171.41 19.45 185.6 33.66 185.55 51.18C185.51 67.83 172.29 81.79 155.67 82.69C146.33 83.2 137.82 79.65 131.72 73.65L131.7 73.68C123.34 66.55 112.67 62.62 101.66 62.62C76.11 62.62 55.33 83.4 55.33 108.95C55.33 134.5 76.11 155.28 101.66 155.28C113.03 155.28 123.93 151.13 132.41 143.6C138.55 137.91 146.95 134.62 156.11 135.24C172.12 136.32 184.91 149.52 185.53 165.56V165.53Z" fill="black"/>
</svg>
