<svg width="415" height="128" viewBox="0 0 415 128" fill="none" xmlns="http://www.w3.org/2000/svg">
<path d="M195.887 30.3352C196.025 30.3643 196.164 30.3861 196.304 30.4003C205.173 30.8441 212.821 34.1742 219.283 40.2588C219.43 40.4067 219.59 40.5547 219.71 40.6656L214.734 45.6452C214.529 45.4543 214.27 45.2191 214.014 44.9795C211.008 42.1914 207.436 40.0856 203.541 38.8061C201.856 38.2583 200.124 37.8656 198.368 37.6329C196.527 37.4033 194.669 37.3463 192.817 37.4628C190.814 37.5779 188.83 37.9214 186.904 38.4865C185.258 38.9537 183.658 39.5707 182.124 40.3298C180.018 41.3532 178.056 42.6489 176.288 44.1836C175.605 44.7753 174.931 45.3966 174.292 46.0431C173.019 47.3428 171.88 48.7677 170.893 50.2963C169.944 51.7505 169.131 53.2891 168.464 54.8927C167.61 56.9166 167.004 59.0368 166.661 61.2066C166.513 62.1265 166.411 63.0533 166.356 63.9834C166.284 65.0924 166.269 66.2044 166.312 67.315C166.404 69.2367 166.699 71.1434 167.191 73.0031C168.68 78.7214 171.912 83.8335 176.437 87.6297C180.962 91.4258 186.556 93.7174 192.442 94.1862C193.809 94.2855 195.181 94.2954 196.55 94.2158C198.766 94.085 200.958 93.6836 203.077 93.0204C204.533 92.5737 205.949 92.0082 207.312 91.3295C211.81 89.094 215.638 85.7108 218.412 81.5213C219.969 79.1758 221.164 76.6096 221.96 73.9085C222.032 73.6629 222.107 73.4159 222.189 73.1067C221.248 73.0963 220.368 73.1067 219.487 73.1067H187.583L194.813 65.8711H230.156V66.3696C229.961 75.0165 227.074 82.6427 221.408 89.177C216.351 95.0028 210 98.7308 202.487 100.473C200.516 100.916 198.51 101.191 196.492 101.296C194.803 101.395 193.109 101.359 191.426 101.188C183.68 100.42 176.86 97.4896 171.055 92.2882C165.412 87.2361 161.783 80.971 160.09 73.5875C159.605 71.4856 159.33 69.3409 159.268 67.1848C158.998 57.7775 161.911 49.4812 168.094 42.3965C173.088 36.6713 179.354 32.9981 186.745 31.2539C188.554 30.8371 190.393 30.5611 192.245 30.4284C192.516 30.4077 192.789 30.4166 193.061 30.4003C193.2 30.3855 193.337 30.3633 193.475 30.3352H195.887Z" fill="#1D1E1F"/>
<path d="M414.206 101.344H407.139V73.1254H385.835V101.279C385.556 101.361 379.262 101.384 378.778 101.312V58.9161H385.817V65.7833C386.113 65.8632 406.446 65.8928 407.133 65.8173V44.7733C407.231 44.7546 407.329 44.7418 407.429 44.7349H414.027C414.086 44.7349 414.144 44.7452 414.203 44.7511L414.206 101.344Z" fill="#1D1E1F"/>
<path d="M343.22 73.0887H314.997L307.78 65.8635H335.075C334.091 63.059 332.526 60.494 330.484 58.3365C327.211 54.8881 323.224 52.7297 318.541 51.9352C313.905 51.1437 309.137 51.9084 304.98 54.1103C300.822 56.3123 297.509 59.8279 295.556 64.11C293.602 68.3921 293.118 73.2004 294.179 77.7864C295.239 82.3725 297.785 86.479 301.42 89.4668C305.64 92.9196 310.512 94.5455 315.952 94.2969C321.391 94.0484 326.039 91.9433 329.932 88.2064L334.832 93.112C327.839 100.469 314.558 104.484 302.268 98.3164C288.31 91.2894 282.686 74.2693 289.703 60.2966C292.596 54.5427 297.363 49.9479 303.217 47.271C309.071 44.594 315.663 43.9949 321.903 45.5725C336.24 49.2324 343.478 62.1577 343.22 73.0887Z" fill="#1D1E1F"/>
<path d="M258.631 87.009L283.008 44.7538H291.085C291.093 44.7641 291.1 44.775 291.106 44.7863C291.106 44.7967 291.116 44.8115 291.106 44.8204C291.089 44.8646 291.07 44.9076 291.048 44.9491L258.528 101.328H251.49V44.8159C251.497 44.8029 251.506 44.791 251.517 44.7804C251.525 44.7724 251.535 44.7668 251.546 44.7641C251.592 44.7517 251.638 44.7438 251.685 44.7405H258.355C258.415 44.7462 258.474 44.7556 258.532 44.7686V86.9942L258.631 87.009Z" fill="#1D1E1F"/>
<path d="M357.455 101.327H350.379V51.6382C349.897 51.6115 349.44 51.6293 348.985 51.6263C348.53 51.6234 348.039 51.6263 347.566 51.6263H341.998L337.99 44.7517H385.801V51.6219H357.455V101.327Z" fill="#1D1E1F"/>
<path d="M244.326 101.328H237.296V58.9128H244.292L244.31 58.9306C244.31 58.9395 244.331 58.9483 244.331 58.9572C244.336 73.0152 244.341 87.0736 244.345 101.133C244.344 101.189 244.334 101.246 244.326 101.328Z" fill="#1D1E1F"/>
<path d="M240.818 44.7349C241.747 44.7419 242.636 45.1173 243.29 45.7789C243.943 46.4404 244.308 47.3342 244.305 48.2645C244.301 49.1948 243.929 50.0858 243.271 50.7424C242.612 51.399 241.721 51.7677 240.791 51.7677C239.861 51.7677 238.97 51.399 238.311 50.7424C237.653 50.0858 237.281 49.1948 237.277 48.2645C237.274 47.3342 237.639 46.4404 238.292 45.7789C238.946 45.1173 239.835 44.7419 240.764 44.7349H240.818Z" fill="#1D1E1F"/>
<path d="M127.997 65.5811C127.871 67.38 127.827 69.1905 127.607 70.9761C125.272 89.9385 116.429 105.133 100.904 116.259C89.3076 124.573 76.219 128.453 61.9629 127.96C45.4774 127.393 31.2647 121.256 19.3469 109.847C19.2372 109.742 19.2399 109.322 19.3469 109.21C34.2114 94.3203 49.0897 79.4461 63.9819 64.587C64.3341 64.2645 64.7897 64.0783 65.2669 64.0616C86.1787 64.0357 107.09 64.0283 128.001 64.0395L127.997 65.5811Z" fill="#1D1E1F"/>
<path d="M65.5551 0C67.3132 0.13355 69.0749 0.211381 70.8268 0.40065C81.0855 1.51268 90.5335 4.89949 99.1709 10.5611C99.2295 10.6051 99.2856 10.6523 99.3389 10.7026L93.8788 16.1516C92.6902 17.3376 91.5096 18.5316 90.3068 19.7026C90.2308 19.7518 90.1439 19.7816 90.0538 19.7895C89.9636 19.7973 89.8728 19.783 89.7895 19.7477C81.0938 14.7448 71.7336 12.4437 61.709 12.8447C39.2805 13.7486 19.7279 29.634 14.3501 51.4168C11.0213 64.9133 12.8732 77.735 19.7279 89.8367C19.7934 89.9517 19.7969 90.2056 19.7182 90.279C16.7426 93.2766 13.7567 96.2666 10.7604 99.2489C10.7312 99.2781 10.695 99.302 10.6269 99.3568C10.3448 98.9199 10.0609 98.4972 9.79379 98.0655C2.40135 86.115 -0.861979 73.1262 0.193959 59.1061C2.39516 29.9612 24.087 6.08405 52.951 1.01357C55.8695 0.501476 58.8542 0.371464 61.8071 0.0645639L62.4103 0H65.5551Z" fill="#1D1E1F"/>
<path d="M98 38.6349C98.0051 35.9732 98.9324 33.3956 100.624 31.3408C102.316 29.2859 104.667 27.8808 107.278 27.3646C109.889 26.8484 112.598 27.253 114.944 28.5095C117.29 29.7661 119.128 31.7969 120.146 34.2563C121.163 36.7158 121.297 39.4519 120.524 41.9989C119.752 44.5459 118.12 46.7464 115.908 48.2258C113.696 49.7053 111.039 50.3723 108.39 50.1133C105.741 49.8543 103.264 48.6853 101.38 46.8053C100.307 45.7326 99.4563 44.4588 98.8763 43.0568C98.2963 41.6548 97.9985 40.1521 98 38.6349Z" fill="#1D1E1F"/>
</svg>
