<svg width="500" height="240" viewBox="0 0 500 240" fill="none" xmlns="http://www.w3.org/2000/svg">
<path d="M418.407 140.25C418.355 140.272 418.249 140.358 418.151 140.35C417.95 140.332 417.751 140.294 417.558 140.239C415.593 139.761 413.639 139.234 411.663 138.81C406.258 137.651 401.209 138.46 396.632 141.671C395.925 142.171 395.193 142.632 394.437 143.054C393.78 143.42 393.128 143.789 392.472 144.157C392.401 144.207 392.316 144.234 392.229 144.233C392.142 144.232 392.058 144.203 391.988 144.151C391.919 144.098 391.868 144.025 391.843 143.941C391.818 143.858 391.818 143.769 391.846 143.687C392.086 142.647 392.273 141.594 392.709 140.605C395.032 135.405 394.76 128.838 391.243 123.461C390.202 121.866 389.307 120.177 388.344 118.53C388.299 118.456 388.261 118.379 388.23 118.299C388.21 118.237 388.205 118.171 388.217 118.107C388.228 118.043 388.254 117.983 388.294 117.931C388.333 117.88 388.385 117.839 388.444 117.811C388.502 117.784 388.567 117.772 388.632 117.775C388.747 117.786 388.861 117.807 388.972 117.838C390.943 118.29 392.921 118.715 394.883 119.202C400.695 120.649 405.997 119.614 410.771 115.982C411.792 115.213 412.926 114.638 414.012 113.979C414.088 113.938 414.17 113.907 414.254 113.886C414.31 113.871 414.368 113.868 414.425 113.878C414.482 113.889 414.536 113.912 414.582 113.947C414.629 113.981 414.667 114.026 414.693 114.077C414.719 114.129 414.734 114.185 414.735 114.243C414.727 114.33 414.713 114.415 414.691 114.499C414.409 115.885 414.047 117.253 413.607 118.598C411.631 124.398 412.331 129.863 415.708 134.99C416.198 135.737 416.63 136.524 417.078 137.298C417.526 138.072 417.962 138.854 418.395 139.639C418.461 139.727 418.498 139.833 418.5 139.943C418.502 140.053 418.47 140.16 418.407 140.25Z" fill="black"/>
<path d="M82.0855 160.043C81.9128 159.894 81.7278 159.761 81.5327 159.644C80.6961 159.251 79.8244 158.938 78.929 158.71C75.0211 157.664 72.0607 155.366 70.0277 151.873C69.667 151.218 69.3454 150.543 69.0647 149.851C68.4583 148.446 67.8743 147.033 67.2813 145.626C67.1877 145.403 67.1208 145.138 66.7441 145.1C66.6157 145.244 66.5036 145.402 66.4097 145.571C65.7833 146.968 65.1368 148.355 64.5617 149.773C62.7181 154.329 59.4657 157.31 54.7531 158.71C53.8369 158.984 52.9697 159.403 52.078 159.76C51.9822 159.804 51.8918 159.86 51.8083 159.924C51.7754 159.953 51.7486 159.988 51.7296 160.027C51.7106 160.067 51.6999 160.109 51.698 160.153C51.6961 160.197 51.7032 160.24 51.7187 160.281C51.7342 160.322 51.7579 160.359 51.7883 160.39C51.9012 160.48 52.0247 160.554 52.1561 160.613C53.1124 160.997 54.0554 161.423 55.034 161.739C59.7911 163.282 63.0146 166.382 64.7445 171.077C65.2215 172.377 65.8368 173.627 66.3919 174.898C66.4342 174.992 66.5011 175.121 66.5836 175.143C66.6429 175.168 66.7065 175.181 66.7708 175.181C66.8351 175.181 66.8988 175.168 66.9581 175.143C67.0622 175.049 67.1392 174.929 67.181 174.796C67.7844 173.39 68.3863 171.983 68.9867 170.576C70.7879 166.365 73.7572 163.373 78.1421 161.902C79.3614 161.492 80.5162 160.945 81.6843 160.424C81.8091 160.357 81.9117 160.208 82.0855 160.043Z" fill="black"/>
<path d="M87.2164 190.328C87.0846 190.215 86.9436 190.113 86.7948 190.024C86.1568 189.724 85.492 189.486 84.8092 189.311C81.829 188.514 79.5714 186.761 78.021 184.097C77.7459 183.598 77.5007 183.084 77.2866 182.556C76.8242 181.485 76.3788 180.407 75.9266 179.334C75.8552 179.164 75.8042 178.962 75.5169 178.933C75.419 179.043 75.3335 179.163 75.2619 179.292C74.7842 180.357 74.2912 181.415 73.8526 182.496C72.4467 185.971 69.9663 188.244 66.3725 189.311C65.6738 189.521 65.0125 189.84 64.3325 190.112C64.2594 190.146 64.1905 190.188 64.1268 190.238C64.1017 190.26 64.0812 190.286 64.0668 190.316C64.0523 190.346 64.0441 190.379 64.0427 190.412C64.0413 190.446 64.0466 190.479 64.0584 190.51C64.0703 190.541 64.0883 190.569 64.1115 190.593C64.1976 190.661 64.2919 190.718 64.392 190.763C65.1213 191.056 65.8404 191.38 66.5867 191.622C70.2145 192.798 72.6728 195.163 73.992 198.743C74.3558 199.734 74.825 200.688 75.2483 201.657C75.2806 201.728 75.3316 201.827 75.3945 201.844C75.4397 201.863 75.4883 201.873 75.5373 201.873C75.5863 201.873 75.6348 201.863 75.6801 201.844C75.7595 201.772 75.8182 201.681 75.8501 201.579C76.3102 200.507 76.7692 199.434 77.2271 198.361C78.6007 195.149 80.8651 192.868 84.2091 191.746C85.139 191.433 86.0196 191.017 86.9104 190.619C87.0056 190.568 87.0838 190.454 87.2164 190.328Z" fill="black"/>
<path d="M32.998 207.002C33.0686 206.961 33.2593 206.911 33.335 206.791C33.486 206.542 33.6137 206.28 33.7164 206.007C34.8527 203.317 35.9237 200.597 37.1332 197.941C40.4402 190.673 45.7248 185.514 53.389 182.97C54.5763 182.58 55.7421 182.128 56.8815 181.614C57.8716 181.168 58.8616 180.729 59.8516 180.285C59.9713 180.246 60.0755 180.17 60.1492 180.068C60.2229 179.966 60.2623 179.844 60.2617 179.718C60.2595 179.592 60.2183 179.471 60.1439 179.37C60.0695 179.268 59.9655 179.193 59.8464 179.154C58.4332 178.537 57.0513 177.847 55.5284 177.503C47.4984 175.721 40.1163 169.752 36.9059 161.046C35.9524 158.465 34.7639 155.973 33.6824 153.439C33.6364 153.323 33.5795 153.212 33.5126 153.107C33.458 153.031 33.3857 152.969 33.302 152.927C33.2182 152.885 33.1255 152.864 33.0318 152.865C32.9381 152.867 32.8461 152.891 32.7638 152.936C32.6815 152.981 32.6113 153.045 32.5592 153.123C32.4731 153.266 32.3997 153.416 32.3397 153.572C31.1669 156.247 29.9574 158.906 28.8342 161.602C25.5088 169.588 19.7462 174.846 11.4237 177.257C9.65263 177.779 8.00954 178.6 6.3116 179.292C6.19826 179.346 6.09207 179.413 5.99552 179.493C5.92938 179.544 5.87583 179.61 5.83898 179.685C5.80214 179.76 5.78299 179.842 5.78299 179.925C5.78299 180.009 5.80214 180.091 5.83898 180.166C5.87583 180.241 5.92938 180.307 5.99552 180.358C6.10202 180.424 6.21387 180.48 6.32989 180.528C8.18031 181.393 10.0791 182.151 12.0167 182.798C20.4455 185.499 26.1801 191.014 29.2208 199.343C29.6648 200.555 30.2056 201.734 30.7176 202.919C31.2296 204.105 31.7624 205.284 32.3006 206.462C32.345 206.614 32.4364 206.748 32.5617 206.845C32.6869 206.942 32.8396 206.997 32.998 207.002Z" fill="black"/>
<path d="M36.2861 144.398C22.1002 144.398 0.447977 141.411 0.447977 128.868C0.447977 121.85 7.16763 117.669 13.738 116.325C2.09056 112.741 0 105.275 0 100.944C0 92.7312 7.0183 86.6088 17.6204 83.3237C8.95953 78.8439 2.38921 71.2283 2.38921 60.4769C2.38921 42.1098 21.0549 33.2996 37.0327 33.2996C43.1551 33.2996 49.8747 34.6435 55.6984 37.3314C59.7302 26.132 70.9296 21.9509 80.1878 24.0414L77.7986 40.9152H76.7533C71.2283 37.4807 65.8526 37.3314 60.3275 39.8699C67.1965 44.3497 71.9749 51.0693 71.9749 60.3275C71.9749 78.6946 52.8613 87.8034 36.8834 87.8034C31.9557 87.8034 26.8786 86.9075 21.9509 85.1156C19.4123 86.9075 17.3218 88.6994 17.3218 90.9393C17.3218 94.3738 22.2495 96.0163 31.0597 96.1657L53.9065 96.4643C66.8979 96.6136 77.7986 104.528 77.7986 117.967C77.7986 134.99 61.5221 144.398 36.2861 144.398ZM18.2177 124.09C18.2177 132.153 27.6252 138.275 41.6618 138.275C53.6079 138.275 61.9701 133.646 61.9701 126.777C61.9701 120.655 55.3998 119.012 47.6349 118.863L29.2678 118.564C26.132 118.564 23.4441 118.266 20.9056 117.967C18.6657 119.61 18.2177 122.298 18.2177 124.09ZM29.4171 60.6262C29.4171 69.2871 30.3131 82.577 36.8834 82.577C43.4537 82.577 44.499 69.2871 44.499 60.6262C44.499 51.816 43.4537 38.6753 36.8834 38.6753C30.3131 38.6753 29.4171 51.816 29.4171 60.6262Z" fill="black"/>
<path d="M117.286 112.293C99.6655 112.293 78.9092 100.645 78.9092 72.7215C78.9092 47.6349 93.6925 33.4489 116.539 33.4489C143.418 33.4489 152.676 54.0559 152.377 71.5269H107.878C109.372 91.0886 118.928 98.1069 128.933 98.1069C135.653 98.1069 142.671 95.1204 149.69 87.6541L151.78 88.1021C148.644 97.6589 136.997 112.293 117.286 112.293ZM107.729 66.3006H125.2C125.499 57.0424 124.752 38.6753 116.689 38.6753C108.326 38.6753 107.729 58.8343 107.729 66.3006Z" fill="black"/>
<path d="M199.62 108.112C202.457 107.066 206.937 105.125 206.937 94.9711V62.2688C206.937 53.4585 202.905 50.6214 197.679 50.472C194.095 50.3227 190.511 51.5173 187.525 53.0106V94.9711C187.525 105.125 192.005 107.066 194.842 108.112V110.501H149.746V108.112C153.479 107.066 159.452 105.125 159.452 94.9711V49.8747C159.452 39.7206 153.479 37.7794 149.746 36.7341V34.3449H187.525V48.2322C190.81 41.0645 198.575 33.4489 210.969 33.4489C224.11 33.4489 235.01 42.4085 235.01 58.237V94.9711C235.01 105.125 240.983 107.066 244.717 108.112V110.501H199.62V108.112Z" fill="black"/>
<path d="M281.34 112.293C263.719 112.293 242.963 100.645 242.963 72.7215C242.963 47.6349 257.746 33.4489 280.593 33.4489C307.472 33.4489 316.73 54.0559 316.431 71.5269H271.932C273.426 91.0886 282.982 98.1069 292.987 98.1069C299.707 98.1069 306.725 95.1204 313.743 87.6541L315.834 88.1021C312.698 97.6589 301.051 112.293 281.34 112.293ZM271.783 66.3006H289.254C289.553 57.0424 288.806 38.6753 280.743 38.6753C272.38 38.6753 271.783 58.8343 271.783 66.3006Z" fill="black"/>
<path d="M314.091 108.112C317.824 107.066 323.797 105.125 323.797 94.9711V49.8747C323.797 39.7206 317.824 37.7794 314.091 36.7341V34.3449H351.871V58.3863C355.753 42.1098 367.848 31.0597 382.93 33.8969L378.6 58.9836H376.808C364.115 52.7119 352.916 59.5809 351.871 74.8121V94.9711C351.871 105.125 357.844 107.066 361.577 108.112V110.501H314.091V108.112Z" fill="black"/>
<path d="M400.653 111.845C389.155 111.845 379.15 103.035 379.15 90.7899C379.15 75.2601 393.635 64.5086 418.572 68.9884V60.3275C418.572 51.2187 411.703 46.7389 403.491 46.7389C397.368 46.7389 390.201 49.2774 384.377 57.9383L381.838 57.4903C384.526 46.1416 395.427 33.8969 414.541 33.4489C434.7 33.0009 446.198 46.1416 446.198 60.1782V90.0433C446.198 94.2244 446.944 97.9576 449.781 97.9576C450.229 97.9576 451.125 97.8083 451.573 97.5096L452.768 98.4055C450.528 105.125 443.958 111.994 434.55 111.994C426.935 111.994 421.111 107.664 419.17 101.541C415.437 107.066 409.165 111.845 400.653 111.845ZM404.088 87.6541C404.088 94.5231 407.074 100.197 412.002 100.197C414.69 100.197 417.228 98.5549 418.572 97.0616V73.3189C409.464 73.0202 404.088 78.3959 404.088 87.6541Z" fill="black"/>
<path d="M450.289 108.112C454.022 107.066 459.995 105.125 459.995 94.9711V20.159C459.995 9.85549 454.022 8.95953 450.14 8.51155L449.841 6.12234L488.068 0V94.9711C488.068 105.125 494.041 107.066 497.774 108.112V110.501H450.289V108.112Z" fill="black"/>
<path d="M183.382 203.085C186.219 202.039 190.55 200.098 190.55 189.944V157.242C190.55 149.178 185.174 146.192 179.201 146.192C176.364 146.192 173.377 146.938 170.54 147.984C170.839 149.626 170.988 151.418 170.988 153.21V189.944C170.988 200.098 175.318 202.039 178.156 203.085V205.474H136.643V203.085C139.48 202.039 143.811 200.098 143.811 189.944V157.242C143.811 149.029 138.286 146.192 132.163 146.192C129.326 146.192 126.489 146.789 124.1 147.834V189.944C124.1 200.098 128.43 202.039 131.267 203.085V205.474H87.2163V203.085C90.9494 202.039 96.7731 200.098 96.7731 189.944V144.848C96.7731 134.694 90.9494 132.752 87.2163 131.707V129.318H124.1V143.952C128.281 135.888 135.896 128.422 147.992 128.422C158.743 128.422 167.255 134.395 170.092 145.296C174.124 136.784 182.038 128.422 194.731 128.422C207.722 128.422 217.876 137.381 217.876 153.21V189.944C217.876 200.098 223.7 202.039 227.433 203.085V205.474H183.382V203.085Z" fill="black"/>
<path d="M246.546 206.818C235.047 206.818 225.043 198.008 225.043 185.763C225.043 170.233 239.527 159.482 264.465 163.961V155.301C264.465 146.192 257.596 141.712 249.383 141.712C243.26 141.712 236.093 144.25 230.269 152.911L227.73 152.463C230.418 141.115 241.319 128.87 260.433 128.422C280.592 127.974 292.09 141.115 292.09 155.151V185.016C292.09 189.197 292.836 192.931 295.674 192.931C296.122 192.931 297.018 192.781 297.466 192.483L298.66 193.379C296.42 200.098 289.85 206.967 280.442 206.967C272.827 206.967 267.003 202.637 265.062 196.514C261.329 202.039 255.057 206.818 246.546 206.818ZM249.98 182.627C249.98 189.496 252.966 195.17 257.894 195.17C260.582 195.17 263.121 193.528 264.465 192.035V168.292C255.356 167.993 249.98 173.369 249.98 182.627Z" fill="black"/>
<path d="M337.884 239.371C323.698 239.371 302.046 236.384 302.046 223.841C302.046 216.823 308.765 212.642 315.336 211.298C303.688 207.714 301.598 200.248 301.598 195.917C301.598 187.704 308.616 181.582 319.218 178.297C310.557 173.817 303.987 166.201 303.987 155.45C303.987 137.083 322.653 128.273 338.63 128.273C344.753 128.273 351.472 129.617 357.296 132.304C361.328 121.105 372.527 116.924 381.785 119.014L379.396 135.888H378.351C372.826 132.454 367.45 132.304 361.925 134.843C368.794 139.323 373.573 146.042 373.573 155.301C373.573 173.668 354.459 182.776 338.481 182.776C333.553 182.776 328.476 181.88 323.548 180.089C321.01 181.88 318.919 183.672 318.919 185.912C318.919 189.347 323.847 190.989 332.657 191.139L355.504 191.437C368.496 191.587 379.396 199.501 379.396 212.94C379.396 229.963 363.12 239.371 337.884 239.371ZM319.815 219.063C319.815 227.126 329.223 233.248 343.259 233.248C355.206 233.248 363.568 228.619 363.568 221.75C363.568 215.628 356.997 213.985 349.233 213.836L330.865 213.537C327.73 213.537 325.042 213.239 322.503 212.94C320.263 214.583 319.815 217.271 319.815 219.063ZM331.015 155.599C331.015 164.26 331.911 177.55 338.481 177.55C345.051 177.55 346.097 164.26 346.097 155.599C346.097 146.789 345.051 133.648 338.481 133.648C331.911 133.648 331.015 146.789 331.015 155.599Z" fill="black"/>
<path d="M382.541 203.085C386.275 202.039 392.248 200.098 392.248 189.944V163.961C392.248 153.807 386.275 151.866 382.541 150.821V148.432H420.171V189.944C420.171 200.098 426.145 202.039 429.878 203.085V205.474H382.541V203.085Z" fill="black"/>
<path d="M466.252 207.266C448.781 207.266 428.324 195.618 428.324 167.695C428.324 142.906 445.795 128.422 468.94 128.422C477.153 128.422 487.158 130.214 495.52 133.499V157.092H492.832C484.47 139.173 478.646 134.992 472.673 134.992C461.922 134.992 457.741 147.984 457.89 162.767C458.189 180.984 465.506 193.677 478.497 193.677C487.606 193.677 494.326 187.256 497.909 182.627L500 183.075C497.013 192.781 485.814 207.266 466.252 207.266Z" fill="black"/>
</svg>
