<svg width="176" height="50" viewBox="0 0 176 50" fill="none" xmlns="http://www.w3.org/2000/svg">
<path d="M6.8269 31.5438L21.3405 17.041H25.6254C27.161 17.041 28.4069 18.2869 28.4069 19.8225V41.1773H21.58V26.8549L7.0646 41.1773H2.7815C1.246 41.1773 0 39.9313 0 38.3957V26.8129H6.8269V31.5438Z" fill="#1A171B"/>
<path d="M50.5575 17.021L44.224 35.344L37.6688 17.021H30.3164L39.2437 41.177H48.9343L57.8617 17.021H50.5575Z" fill="#1A171B"/>
<path d="M104.697 22.579H97.1539C94.4809 22.579 93.9559 23.1528 93.9559 26.4456V41.1773H87.1289V23.8678C87.1289 19.1897 89.0859 17.041 93.9559 17.041H104.697V22.579Z" fill="#1A171B"/>
<path d="M175.116 22.579H167.571C164.898 22.579 164.373 23.1528 164.373 26.4456V41.1773H157.547V23.8678C157.547 19.1897 159.503 17.041 164.373 17.041H175.116V22.579Z" fill="#1A171B"/>
<path d="M120.783 35.5907C119.303 35.5907 118.206 35.1617 118.206 33.0612V22.5787H125.366V17.0407H118.206V9H111.426V17.0407H106.605V22.5787H111.426V31.5346C111.426 37.9307 113.194 41.177 119.829 41.177H126.56V35.5907H120.783Z" fill="#1A171B"/>
<path d="M75.8625 35.3157C74.6684 35.8823 72.9505 36.07 71.0878 36.07C69.1787 36.07 66.8869 35.5981 65.5498 34.6078C64.1662 33.6657 63.2581 32.2499 62.9238 30.4105H84.8842C84.9332 29.7973 84.9792 29.7973 84.9792 29.0894C84.9792 20.979 78.9158 17.0195 71.0878 17.0195C63.2599 17.0195 56.5742 20.9325 56.5742 29.0894C56.5742 37.2463 63.2581 41.1594 71.0878 41.1594C74.3824 41.1594 77.3409 40.7357 79.8239 39.4147C82.3033 38.1437 84.3522 36.0271 84.9762 32.5949H78.5815C77.9737 33.9464 76.9172 34.7901 75.859 35.3139L75.8625 35.3157ZM65.3121 23.7176C66.8405 22.3966 69.3699 21.8317 71.1361 21.8317C73.0453 21.8317 75.051 22.2554 76.2451 23.058C77.4392 23.8589 78.1542 24.9439 78.6798 26.6422H63.4333C63.8373 25.4659 64.4683 24.4738 65.3121 23.7194V23.7176Z" fill="#1A171B"/>
<path d="M146.281 35.3157C145.087 35.8823 143.368 36.07 141.505 36.07C139.596 36.07 137.304 35.5981 135.967 34.6078C134.583 33.6657 133.675 32.2499 133.341 30.4105H155.303C155.351 29.7973 155.396 29.7973 155.396 29.0894C155.396 20.979 149.333 17.0195 141.505 17.0195C133.677 17.0195 126.992 20.9325 126.992 29.0894C126.992 37.2463 133.675 41.1594 141.505 41.1594C144.8 41.1594 147.759 40.7357 150.242 39.4147C152.721 38.1437 154.769 36.0271 155.393 32.5949H148.999C148.391 33.9464 147.335 34.7901 146.277 35.3139L146.281 35.3157ZM135.729 23.7176C137.258 22.3966 139.787 21.8317 141.553 21.8317C143.462 21.8317 145.469 22.2554 146.663 23.058C147.857 23.8589 148.572 24.9439 149.098 26.6422H133.85C134.254 25.4659 134.885 24.4738 135.729 23.7194V23.7176Z" fill="#1A171B"/>
<path d="M6.82689 17.041H0V23.8679H6.82689V17.041Z" fill="#1A171B"/>
</svg>
