<svg width="208" height="35" viewBox="0 0 208 35" fill="none" xmlns="http://www.w3.org/2000/svg">
<path d="M71.1083 34.0451H76.6009C78.9561 34.0451 81.111 33.1924 82.7703 31.7806L71.1083 20.1862V34.0451Z" fill="#F6F6F6"/>
<path d="M84.1667 30.3087C85.3764 28.7246 86.0942 26.7491 86.0942 24.6068V18.3749H72.1634L84.1667 30.3087Z" fill="#F6F6F6"/>
<path d="M86.0942 16.3524V11.3932C86.0942 9.12043 85.2862 7.03525 83.9401 5.40618L72.9301 16.3524H86.0942Z" fill="#F6F6F6"/>
<path d="M82.4887 3.98898C80.8705 2.71537 78.825 1.95496 76.6009 1.95496H71.1083V15.3034L82.4887 3.98898Z" fill="#F6F6F6"/>
<path d="M69.074 1.95496H9.49332C4.25031 1.95496 0 6.18062 0 11.3932V16.3524H67.2522L56.4736 5.63633L57.9121 4.20622L69.074 15.3035V1.95496Z" fill="#F6F6F6"/>
<path d="M0 18.3749V24.6068C0 29.8195 4.25031 34.0451 9.49333 34.0451H69.074V20.1861L57.9266 31.2689L56.4882 29.8388L68.0189 18.3749H0Z" fill="#F6F6F6"/>
<path d="M199.606 33.8347V22.5598H202.653L202.971 23.6957H203.076C203.373 23.3031 203.753 23.0156 204.219 22.8333C204.684 22.651 205.164 22.5598 205.658 22.5598H207.223V25.8413H205.869C204.981 25.8413 204.289 26.0797 203.796 26.5565C203.316 27.0193 203.076 27.7134 203.076 28.639V33.8347H199.606Z" fill="#F6F6F6"/>
<path d="M192.739 34.0451C190.948 34.0451 189.552 33.5402 188.55 32.5305C187.549 31.5068 187.048 30.0624 187.048 28.1973C187.048 26.3322 187.549 24.8947 188.55 23.8851C189.552 22.8613 190.948 22.3495 192.739 22.3495C194.531 22.3495 195.927 22.8613 196.929 23.8851C197.93 24.8947 198.431 26.3322 198.431 28.1973C198.431 30.0624 197.93 31.5068 196.929 32.5305C195.927 33.5402 194.531 34.0451 192.739 34.0451ZM192.739 30.9739C193.402 30.9739 193.938 30.7425 194.347 30.2798C194.756 29.803 194.961 29.1088 194.961 28.1973C194.961 27.2857 194.756 26.5986 194.347 26.1358C193.938 25.659 193.402 25.4206 192.739 25.4206C192.076 25.4206 191.54 25.659 191.131 26.1358C190.722 26.5986 190.518 27.2857 190.518 28.1973C190.518 29.1088 190.722 29.803 191.131 30.2798C191.54 30.7425 192.076 30.9739 192.739 30.9739Z" fill="#F6F6F6"/>
<path d="M184.172 33.8348C182.846 33.8348 181.88 33.5543 181.273 32.9934C180.667 32.4184 180.363 31.549 180.363 30.385V25.6731H178.565V22.5599H180.363L180.913 19.615H183.833V22.5599H186.478V25.6731H183.833V29.7329C183.833 30.0274 183.918 30.2658 184.087 30.4481C184.256 30.6304 184.482 30.7216 184.764 30.7216H186.478V33.8348H184.172Z" fill="#F6F6F6"/>
<path d="M173.029 22.3495C174.608 22.3495 175.836 22.7281 176.71 23.4854C177.599 24.2286 178.043 25.3155 178.043 26.7458V33.8347H174.996L174.679 32.6988H174.573C174.305 33.0494 173.917 33.3649 173.409 33.6454C172.902 33.9118 172.288 34.0451 171.569 34.0451C170.751 34.0451 170.038 33.8908 169.432 33.5823C168.839 33.2738 168.381 32.8531 168.057 32.3202C167.746 31.7873 167.591 31.1843 167.591 30.5111C167.591 29.4874 167.972 28.653 168.734 28.008C169.495 27.3629 170.602 27.0403 172.055 27.0403H174.637V26.5776C174.637 26.1569 174.488 25.8203 174.192 25.5679C173.896 25.3155 173.494 25.1892 172.986 25.1892C172.577 25.1892 172.239 25.2664 171.971 25.4206C171.717 25.5749 171.533 25.7922 171.421 26.0727H168.014C168.212 25.021 168.727 24.1375 169.559 23.4223C170.405 22.7071 171.562 22.3495 173.029 22.3495ZM172.436 31.3105C173.099 31.3105 173.628 31.1422 174.023 30.8056C174.432 30.455 174.637 30.0063 174.637 29.4594V29.207H172.288C171.865 29.207 171.54 29.2981 171.315 29.4804C171.103 29.6627 170.997 29.9151 170.997 30.2377C170.997 30.5462 171.117 30.8056 171.357 31.016C171.597 31.2123 171.957 31.3105 172.436 31.3105Z" fill="#F6F6F6"/>
<path d="M160.098 33.8347V22.5598H163.145L163.462 23.6957H163.568C163.864 23.3031 164.245 23.0156 164.711 22.8333C165.176 22.651 165.656 22.5598 166.149 22.5598H167.715V25.8413H166.361C165.472 25.8413 164.781 26.0797 164.288 26.5565C163.808 27.0193 163.568 27.7134 163.568 28.639V33.8347H160.098Z" fill="#F6F6F6"/>
<path d="M158.922 28.1131C158.922 28.4918 158.886 28.8564 158.816 29.207H150.966C151.079 29.8661 151.326 30.3709 151.707 30.7215C152.088 31.0721 152.588 31.2474 153.209 31.2474C153.787 31.2474 154.218 31.1562 154.5 30.9739C154.796 30.7916 155.036 30.5462 155.219 30.2377H158.71C158.456 31.2334 157.892 32.1168 157.017 32.8881C156.157 33.6594 154.93 34.0451 153.336 34.0451C151.516 34.0451 150.099 33.5402 149.083 32.5305C148.082 31.5068 147.581 30.0624 147.581 28.1973C147.581 26.3322 148.089 24.8947 149.104 23.8851C150.12 22.8613 151.531 22.3495 153.336 22.3495C154.507 22.3495 155.508 22.6019 156.34 23.1068C157.187 23.6116 157.829 24.3058 158.266 25.1892C158.703 26.0587 158.922 27.0333 158.922 28.1131ZM155.706 27.0403C155.607 26.5074 155.353 26.0587 154.944 25.6941C154.535 25.3154 153.999 25.1261 153.336 25.1261C152.715 25.1261 152.201 25.2874 151.791 25.6099C151.382 25.9325 151.107 26.4093 150.966 27.0403H155.706Z" fill="#F6F6F6"/>
<path d="M145.24 33.8347C143.914 33.8347 142.948 33.5543 142.341 32.9933C141.735 32.4184 141.431 31.5489 141.431 30.385V19.1101H144.901V29.7329C144.901 30.0274 144.986 30.2658 145.155 30.4481C145.325 30.6304 145.55 30.7215 145.832 30.7215H147.504V33.8347H145.24Z" fill="#F6F6F6"/>
<path d="M140.149 28.1131C140.149 28.4918 140.114 28.8564 140.043 29.207H132.194C132.307 29.8661 132.553 30.3709 132.934 30.7215C133.315 31.0721 133.816 31.2474 134.436 31.2474C135.015 31.2474 135.445 31.1562 135.727 30.9739C136.023 30.7916 136.263 30.5462 136.446 30.2377H139.938C139.684 31.2334 139.119 32.1168 138.245 32.8881C137.384 33.6594 136.157 34.0451 134.563 34.0451C132.744 34.0451 131.326 33.5402 130.311 32.5305C129.309 31.5068 128.808 30.0624 128.808 28.1973C128.808 26.3322 129.316 24.8947 130.332 23.8851C131.347 22.8613 132.758 22.3495 134.563 22.3495C135.734 22.3495 136.736 22.6019 137.568 23.1068C138.414 23.6116 139.056 24.3058 139.493 25.1892C139.93 26.0587 140.149 27.0333 140.149 28.1131ZM136.933 27.0403C136.834 26.5074 136.58 26.0587 136.171 25.6941C135.762 25.3154 135.226 25.1261 134.563 25.1261C133.943 25.1261 133.428 25.2874 133.019 25.6099C132.61 25.9325 132.335 26.4093 132.194 27.0403H136.933Z" fill="#F6F6F6"/>
<path d="M123.068 34.0451C121.277 34.0451 119.88 33.5402 118.879 32.5305C117.877 31.5068 117.377 30.0624 117.377 28.1973C117.377 26.3322 117.877 24.8947 118.879 23.8851C119.88 22.8613 121.277 22.3495 123.068 22.3495C124.69 22.3495 125.938 22.7842 126.813 23.6537C127.702 24.5091 128.266 25.5538 128.506 26.7879H125.036C124.838 26.3392 124.577 26.0026 124.253 25.7782C123.943 25.5398 123.527 25.4206 123.005 25.4206C122.37 25.4206 121.848 25.659 121.439 26.1358C121.044 26.6126 120.847 27.2998 120.847 28.1973C120.847 29.0948 121.044 29.7819 121.439 30.2587C121.848 30.7355 122.37 30.9739 123.005 30.9739C123.527 30.9739 123.943 30.8617 124.253 30.6374C124.577 30.399 124.838 30.0554 125.036 29.6066H128.506C128.266 30.8407 127.702 31.8925 126.813 32.7619C125.938 33.6173 124.69 34.0451 123.068 34.0451Z" fill="#F6F6F6"/>
<path d="M111.636 34.0451C109.845 34.0451 108.448 33.5402 107.447 32.5305C106.445 31.5068 105.945 30.0624 105.945 28.1973C105.945 26.3322 106.445 24.8947 107.447 23.8851C108.448 22.8613 109.845 22.3495 111.636 22.3495C113.258 22.3495 114.507 22.7842 115.381 23.6537C116.27 24.5091 116.834 25.5538 117.074 26.7879H113.604C113.406 26.3392 113.145 26.0026 112.821 25.7782C112.511 25.5398 112.095 25.4206 111.573 25.4206C110.938 25.4206 110.416 25.659 110.007 26.1358C109.612 26.6126 109.415 27.2998 109.415 28.1973C109.415 29.0948 109.612 29.7819 110.007 30.2587C110.416 30.7355 110.938 30.9739 111.573 30.9739C112.095 30.9739 112.511 30.8617 112.821 30.6374C113.145 30.399 113.406 30.0554 113.604 29.6066H117.074C116.834 30.8407 116.27 31.8925 115.381 32.7619C114.507 33.6173 113.258 34.0451 111.636 34.0451Z" fill="#F6F6F6"/>
<path d="M106.374 33.8347H102.396L101.571 31.3526H96.0702L95.2662 33.8347H91.3731L96.5991 19.1101H101.148L106.374 33.8347ZM98.7572 23.0858L97.1069 28.1763H100.534L98.863 23.0858H98.7572Z" fill="#F6F6F6"/>
<path d="M181.803 17.0128C180.012 17.0128 178.616 16.508 177.614 15.4983C176.613 14.4746 176.112 13.0302 176.112 11.165C176.112 9.29992 176.613 7.86252 177.614 6.85283C178.616 5.82912 180.012 5.31726 181.803 5.31726C183.426 5.31726 184.674 5.75199 185.548 6.62144C186.437 7.47687 187.001 8.52162 187.241 9.75569H183.771C183.574 9.30694 183.313 8.97037 182.988 8.746C182.678 8.5076 182.262 8.3884 181.74 8.3884C181.105 8.3884 180.583 8.6268 180.174 9.1036C179.779 9.58039 179.582 10.2675 179.582 11.165C179.582 12.0625 179.779 12.7497 180.174 13.2265C180.583 13.7033 181.105 13.9417 181.74 13.9417C182.262 13.9417 182.678 13.8295 182.988 13.6051C183.313 13.3667 183.574 13.0232 183.771 12.5744H187.241C187.001 13.8085 186.437 14.8602 185.548 15.7297C184.674 16.5851 183.426 17.0128 181.803 17.0128Z" fill="#F6F6F6"/>
<path d="M174.917 16.8025H171.447V5.52759H174.917V16.8025ZM173.182 4.41272C172.618 4.41272 172.153 4.23743 171.786 3.88684C171.419 3.52223 171.236 3.07348 171.236 2.54059C171.236 2.0077 171.419 1.56596 171.786 1.21537C172.153 0.850762 172.618 0.668457 173.182 0.668457C173.747 0.668457 174.212 0.850762 174.579 1.21537C174.946 1.56596 175.129 2.0077 175.129 2.54059C175.129 3.07348 174.946 3.52223 174.579 3.88684C174.212 4.23743 173.747 4.41272 173.182 4.41272Z" fill="#F6F6F6"/>
<path d="M167.796 16.8024C166.47 16.8024 165.504 16.522 164.897 15.961C164.291 15.3861 163.987 14.5166 163.987 13.3527V8.64078H162.189V5.52757H163.987L164.537 2.58264H167.457V5.52757H170.102V8.64078H167.457V12.7006C167.457 12.9951 167.542 13.2335 167.711 13.4158C167.88 13.5981 168.106 13.6892 168.388 13.6892H170.102V16.8024H167.796Z" fill="#F6F6F6"/>
<path d="M156.653 5.31726C158.233 5.31726 159.46 5.69589 160.334 6.45316C161.223 7.1964 161.667 8.28322 161.667 9.71362V16.8025H158.62L158.303 15.6666H158.197C157.929 16.0172 157.541 16.3327 157.034 16.6132C156.526 16.8796 155.912 17.0128 155.193 17.0128C154.375 17.0128 153.662 16.8586 153.056 16.5501C152.463 16.2415 152.005 15.8208 151.681 15.2879C151.37 14.7551 151.215 14.152 151.215 13.4789C151.215 12.4552 151.596 11.6208 152.358 10.9757C153.119 10.3306 154.227 10.0081 155.679 10.0081H158.261V9.54533C158.261 9.12463 158.113 8.78807 157.816 8.53565C157.52 8.28322 157.118 8.15701 156.61 8.15701C156.201 8.15701 155.863 8.23414 155.595 8.3884C155.341 8.54266 155.158 8.76002 155.045 9.04049H151.638C151.836 7.98873 152.351 7.10525 153.183 6.39006C154.029 5.67486 155.186 5.31726 156.653 5.31726ZM156.06 14.2783C156.723 14.2783 157.252 14.11 157.647 13.7734C158.056 13.4228 158.261 12.9741 158.261 12.4272V12.1747H155.912C155.489 12.1747 155.165 12.2659 154.939 12.4482C154.727 12.6305 154.622 12.8829 154.622 13.2055C154.622 13.514 154.741 13.7734 154.981 13.9838C155.221 14.1801 155.581 14.2783 156.06 14.2783Z" fill="#F6F6F6"/>
<path d="M143.722 16.8025V5.52759H146.769L147.087 6.66349H147.192C147.489 6.27083 147.869 5.98335 148.335 5.80105C148.8 5.61874 149.28 5.52759 149.774 5.52759H151.339V8.80908H149.985C149.097 8.80908 148.405 9.04748 147.912 9.52427C147.432 9.98705 147.192 10.6812 147.192 11.6068V16.8025H143.722Z" fill="#F6F6F6"/>
<path d="M135.515 17.0127C134.02 17.0127 132.821 16.5079 131.918 15.4982C131.03 14.4885 130.585 13.0441 130.585 11.165C130.585 9.28582 131.03 7.8414 131.918 6.83171C132.821 5.82202 134.02 5.31718 135.515 5.31718C136.136 5.31718 136.693 5.43638 137.187 5.67478C137.694 5.91318 138.096 6.20767 138.393 6.55826H138.498V2.07776H141.968V16.8024H138.922L138.604 15.6665H138.498C137.751 16.564 136.756 17.0127 135.515 17.0127ZM136.277 13.9416C136.94 13.9416 137.476 13.7102 137.885 13.2474C138.294 12.7706 138.498 12.0765 138.498 11.165C138.498 10.2534 138.294 9.56629 137.885 9.10351C137.476 8.62672 136.94 8.38832 136.277 8.38832C135.614 8.38832 135.078 8.62672 134.669 9.10351C134.26 9.56629 134.055 10.2534 134.055 11.165C134.055 12.0765 134.26 12.7706 134.669 13.2474C135.078 13.7102 135.614 13.9416 136.277 13.9416Z" fill="#F6F6F6"/>
<path d="M124.485 5.31726C126.065 5.31726 127.292 5.69589 128.167 6.45316C129.055 7.1964 129.5 8.28322 129.5 9.71362V16.8025H126.453L126.136 15.6666H126.03C125.762 16.0172 125.374 16.3327 124.866 16.6132C124.358 16.8796 123.745 17.0128 123.025 17.0128C122.207 17.0128 121.495 16.8586 120.888 16.5501C120.296 16.2415 119.838 15.8208 119.513 15.2879C119.203 14.7551 119.048 14.152 119.048 13.4789C119.048 12.4552 119.429 11.6208 120.19 10.9757C120.952 10.3306 122.059 10.0081 123.512 10.0081H126.093V9.54533C126.093 9.12463 125.945 8.78807 125.649 8.53565C125.353 8.28322 124.951 8.15701 124.443 8.15701C124.034 8.15701 123.695 8.23414 123.427 8.3884C123.174 8.54266 122.99 8.76002 122.877 9.04049H119.471C119.668 7.98873 120.183 7.10525 121.015 6.39006C121.862 5.67486 123.018 5.31726 124.485 5.31726ZM123.893 14.2783C124.556 14.2783 125.085 14.11 125.48 13.7734C125.889 13.4228 126.093 12.9741 126.093 12.4272V12.1747H123.745C123.322 12.1747 122.997 12.2659 122.772 12.4482C122.56 12.6305 122.454 12.8829 122.454 13.2055C122.454 13.514 122.574 13.7734 122.814 13.9838C123.054 14.1801 123.413 14.2783 123.893 14.2783Z" fill="#F6F6F6"/>
<path d="M111.464 17.0128C110.745 17.0128 110.075 16.8515 109.454 16.529C108.848 16.1924 108.354 15.6876 107.973 15.0145C107.592 14.3413 107.402 13.4999 107.402 12.4902V5.52759H110.872V11.9433C110.872 12.5744 111.027 13.0652 111.337 13.4158C111.662 13.7664 112.106 13.9417 112.67 13.9417C113.22 13.9417 113.658 13.7664 113.982 13.4158C114.321 13.0512 114.49 12.5604 114.49 11.9433V5.52759H117.96V16.8025H114.913L114.596 15.6666H114.49C113.7 16.5641 112.691 17.0128 111.464 17.0128Z" fill="#F6F6F6"/>
<path d="M103.983 15.6665L106.184 18.9059H102.058L100.725 16.9076C100.259 16.9777 99.808 17.0128 99.3708 17.0128C97.9461 17.0128 96.6978 16.7183 95.6258 16.1293C94.5679 15.5403 93.7428 14.6779 93.1503 13.542C92.5579 12.4061 92.2617 11.0388 92.2617 9.4401C92.2617 7.84143 92.5579 6.47414 93.1503 5.33824C93.7428 4.20234 94.5679 3.3399 95.6258 2.75091C96.6978 2.16192 97.9461 1.86743 99.3708 1.86743C100.795 1.86743 102.037 2.16192 103.095 2.75091C104.167 3.3399 104.999 4.20234 105.591 5.33824C106.184 6.47414 106.48 7.84143 106.48 9.4401C106.48 10.8144 106.261 12.0204 105.824 13.0582C105.387 14.0819 104.759 14.9163 103.941 15.5613L103.983 15.6665ZM96.0701 9.4401C96.0701 10.7443 96.3522 11.768 96.9164 12.5112C97.4807 13.2405 98.2988 13.6051 99.3708 13.6051C100.443 13.6051 101.261 13.2405 101.825 12.5112C102.389 11.768 102.671 10.7443 102.671 9.4401C102.671 8.13592 102.389 7.11922 101.825 6.39C101.261 5.64675 100.443 5.27513 99.3708 5.27513C98.2988 5.27513 97.4807 5.64675 96.9164 6.39C96.3522 7.11922 96.0701 8.13592 96.0701 9.4401Z" fill="#F6F6F6"/>
</svg>
