<svg width="32" height="32" viewBox="0 0 32 32" fill="none" xmlns="http://www.w3.org/2000/svg">
<path d="M4 12.3871C4 5.54589 9.54589 0 16.3871 0C23.2284 0 28.7742 5.54589 28.7742 12.3871V30.1177C28.7742 31.1573 27.9315 32 26.8918 32H5.88236C4.84276 32 4 31.1573 4 30.1177V12.3871Z" fill="url(#paint0_linear_6171_405)"/>
<path fill-rule="evenodd" clip-rule="evenodd" d="M27.3024 30.4624V12.4232C27.3024 6.37724 22.4156 1.47602 16.3871 1.47602C10.3587 1.47602 5.47173 6.37724 5.47173 12.4232V30.4624C5.47173 30.4965 5.49919 30.524 5.53306 30.524H27.2412C27.2751 30.524 27.3024 30.4965 27.3024 30.4624ZM16.3871 0C9.54589 0 4 5.56205 4 12.4232V30.4624C4 31.3116 4.68637 32 5.53306 32H27.2412C28.0879 32 28.7742 31.3116 28.7742 30.4624V12.4232C28.7742 5.56205 23.2284 0 16.3871 0Z" fill="#91A0A1"/>
<defs>
<linearGradient id="paint0_linear_6171_405" x1="7.18876" y1="1.84503" x2="28.8643" y2="36.2287" gradientUnits="userSpaceOnUse">
<stop offset="0.265625"/>
<stop offset="0.734375"/>
</linearGradient>
</defs>
</svg>
