<svg width="825" height="161" viewBox="0 0 825 161" fill="none" xmlns="http://www.w3.org/2000/svg">
<path d="M129.024 0L78.7913 28.8496V118.891L51.0753 134.957L23.19 118.878V86.7314L51.0753 70.808L69.0054 81.2064V55.1974L50.919 44.9293L0.699219 74.1048V131.817L51.0884 160.836L101.308 131.817V41.789L129.194 25.7093L157.066 41.789V73.792L129.194 90.0151L111.107 79.5255V105.404L129.024 115.737L179.739 86.8877V28.8496L129.024 0Z" fill="black"/>
<path fill-rule="evenodd" clip-rule="evenodd" d="M423.736 125.002H446.253V1.57666H423.736V125.002ZM278.98 37.2673C289.652 37.2673 298.499 41.5544 305.497 50.1155C312.507 58.6765 315.999 69.2965 315.999 81.9752C315.999 94.6539 312.494 105.274 305.497 113.835C298.486 122.396 289.652 126.683 278.98 126.683C271.422 126.683 264.854 124.351 259.303 119.673C253.857 114.89 249.856 108.44 247.289 100.322V158.36H224.772V38.9353H247.289V63.6151C249.843 55.4971 253.857 49.0991 259.303 44.4342C264.867 39.6519 271.422 37.2673 278.98 37.2673ZM270.796 106.16C276.908 106.16 282.081 103.88 286.303 99.3188C290.525 94.6539 292.636 88.8683 292.636 81.9752C292.636 75.082 290.525 69.518 286.303 64.9573C282.081 60.2923 276.908 57.9468 270.796 57.9468C264.007 57.9468 258.404 60.2272 253.948 64.7879C249.504 69.3486 247.276 75.069 247.276 81.9622C247.276 88.8553 249.504 94.6409 253.948 99.3058C258.391 103.867 264.007 106.147 270.796 106.147V106.16ZM321.98 81.9752C321.98 94.6539 326.372 105.274 335.154 113.835C343.937 122.396 354.896 126.683 368.017 126.683C381.139 126.683 392.098 122.396 400.88 113.835C409.663 105.274 414.054 94.6539 414.054 81.9752C414.054 69.2965 409.663 58.6765 400.88 50.1155C392.098 41.5544 381.139 37.2673 368.017 37.2673C354.896 37.2673 343.937 41.5544 335.154 50.1155C326.372 58.6765 321.98 69.2965 321.98 81.9752ZM351.833 99.3188C347.494 94.6539 345.331 88.8683 345.331 81.9752C345.331 75.082 347.494 69.518 351.833 64.9573C356.173 60.2923 361.567 57.9468 368.017 57.9468C374.467 57.9468 379.862 60.2272 384.201 64.7879C388.54 69.3486 390.704 75.069 390.704 81.9622C390.704 88.8553 388.54 94.6409 384.201 99.3058C379.862 103.867 374.467 106.147 368.017 106.147C361.567 106.147 356.173 103.867 351.833 99.3058V99.3188ZM654.273 113.835C645.49 105.274 641.099 94.6539 641.099 81.9752C641.099 69.2965 645.49 58.6765 654.273 50.1155C663.055 41.5544 674.014 37.2673 687.136 37.2673C700.257 37.2673 711.216 41.5544 719.999 50.1155C728.781 58.6765 733.173 69.2965 733.173 81.9752C733.173 94.6539 728.781 105.274 719.999 113.835C711.216 122.396 700.257 126.683 687.136 126.683C674.014 126.683 663.068 122.396 654.273 113.835ZM664.436 81.9752C664.436 88.8683 666.599 94.6539 670.939 99.3188C675.278 103.88 680.672 106.16 687.123 106.16C693.573 106.16 698.967 103.88 703.307 99.3188C707.646 94.6539 709.809 88.8683 709.809 81.9752C709.809 75.082 707.646 69.3486 703.307 64.8009C698.967 60.2402 693.573 57.9599 687.123 57.9599C680.672 57.9599 675.278 60.2923 670.939 64.9703C666.599 69.531 664.436 75.1993 664.436 81.9882V81.9752ZM793.1 37.2673C802.664 37.2673 810.34 40.6032 816.112 47.2748C822.002 53.9465 824.947 62.4554 824.947 72.7886V124.989H802.43V76.789C802.43 71.225 800.658 66.6643 797.087 63.1069C793.53 59.5496 789.087 57.7644 783.744 57.7644C777.737 57.7644 772.851 59.5496 769.072 63.1069C765.293 66.6643 763.403 71.225 763.403 76.789V124.989H740.887V38.9353H763.403V60.9569C765.632 53.6207 769.358 47.8351 774.584 43.6132C779.926 39.3913 786.09 37.2804 793.1 37.2804V37.2673ZM500.343 102.055L523.355 39.0134H546.21L498.844 158.438H475.989L488.003 128.077L452.807 39.0134H477.161L500.343 102.055ZM610.242 38.9353V60.5008C605.551 46.4278 593.967 38.9353 578.552 38.9353C555.279 38.9353 541.519 59.2629 541.519 80.633C541.519 102.003 555.175 123.999 578.552 123.999C593.967 123.999 605.551 112.884 610.242 98.8107V115.32C610.242 122.331 607.962 128.103 603.401 132.664C598.841 137.225 593.29 139.505 586.722 139.505C577.822 139.505 571.216 135.062 566.877 126.162L546.692 136.834C550.471 143.844 555.866 149.447 562.876 153.682C569.887 157.904 577.835 160.015 586.722 160.015C599.844 160.015 610.803 155.741 619.585 147.167C628.368 138.606 632.759 127.986 632.759 115.307V38.9353H610.242ZM603.74 96.9864C599.401 101.326 593.954 103.489 587.4 103.489C580.845 103.489 575.724 101.326 571.385 96.9864C567.046 92.543 564.883 87.0962 564.883 80.6461C564.883 74.1959 567.046 68.8013 571.385 64.4621C575.724 60.1229 581.054 57.9599 587.4 57.9599C593.746 57.9599 599.414 60.1229 603.74 64.4621C608.079 68.684 610.242 74.0787 610.242 80.6461C610.242 87.2135 608.079 92.6602 603.74 96.9864Z" fill="black"/>
</svg>
