<svg width="208" height="38" viewBox="0 0 208 38" fill="none" xmlns="http://www.w3.org/2000/svg">
<path fill-rule="evenodd" clip-rule="evenodd" d="M10.9885 2.37415C7.26836 2.74053 5.77292 3.48038 3.361 6.14837C1.28872 8.44086 0.781098 10.0435 0.636889 14.7473L0.510365 18.8839H13.9617C21.696 18.8839 67.7087 18.7552 67.7087 18.581C67.7087 18.4145 65.3764 15.7171 62.5257 12.5875C59.6751 9.45761 57.3428 6.73019 57.3428 6.52691C57.3428 6.32329 57.5928 5.90626 57.8983 5.60032C58.4242 5.07287 58.7419 5.35652 63.8953 10.9508C66.8886 14.1996 69.3825 16.8578 69.4377 16.8578C69.4929 16.8578 69.538 13.5148 69.538 9.42891V2L61.8398 2.0466C57.6059 2.07193 12.5602 2.21949 10.9885 2.37415ZM71.6722 9.48766V16.9757L72.4914 16.1568C74.4167 14.2327 82.9525 4.67576 82.951 4.44614C82.9479 4.06186 81.132 2.99243 79.5991 2.47275C78.8006 2.20193 76.857 2.00574 74.9497 2.00371L71.6722 2V9.48766ZM78.9146 12.211C75.5551 16.0207 73.6124 18.4665 73.7896 18.6627C73.9658 18.8579 76.4987 18.864 80.4192 18.6779L86.7638 18.3774L86.7449 14.3188C86.7272 10.5294 86.6665 10.1276 85.8303 8.25818C85.3376 7.15701 84.7973 6.21523 84.6296 6.16559C84.4619 6.11595 81.8903 8.83628 78.9146 12.211ZM79.8787 20.7127C79.7985 20.8015 78.3308 20.9012 76.617 20.9336C74.9036 20.9663 73.5015 21.0714 73.5015 21.1669C73.5015 21.3246 77.8424 26.0903 82.6067 31.1632C83.6296 32.2522 84.6418 33.0687 84.8565 32.9775C85.0708 32.8864 85.5845 32.0712 85.9979 31.1662C86.6809 29.6713 86.7504 29.1185 86.7568 25.1309L86.7638 20.7411L83.3942 20.6462C81.5409 20.5942 79.9588 20.6239 79.8787 20.7127ZM0.648779 25.2434C0.773476 28.5972 0.923175 29.5433 1.5808 31.1345C2.48965 33.3331 4.41803 35.6009 6.37658 36.7747C7.74398 37.5939 48.0792 37.597 58.7909 37.7148L69.538 37.8333V30.3845C69.538 26.2878 69.478 22.936 69.4045 22.936C69.331 22.936 66.795 25.6969 63.769 29.0713C58.3531 35.1106 58.2574 35.1971 57.6525 34.5906C57.3144 34.2519 57.0379 33.8433 57.0379 33.6829C57.0379 33.5225 59.4388 30.7272 62.3733 27.471C65.3078 24.2145 67.7087 21.4823 67.7087 21.3989C67.7087 21.3158 21.3578 21.2476 13.9568 21.2476H0.5L0.648779 25.2434ZM71.6722 29.9685V37.4561H75.1667C78.843 37.4561 80.9604 36.8899 82.6305 35.4601L83.3751 34.8226L81.4418 32.8468C80.3784 31.7605 78.1061 29.3519 76.392 27.4947C74.6783 25.6374 72.9152 23.7495 72.474 23.2994L71.6722 22.4805V29.9685Z" fill="#F6F6F6"/>
<path d="M104.271 15.8649L106.457 19.1021H102.358L101.033 17.1051C100.571 17.1752 100.122 17.2102 99.688 17.2102C98.2725 17.2102 97.0323 16.9159 95.9672 16.3273C94.9162 15.7387 94.0963 14.8769 93.5078 13.7417C92.9192 12.6066 92.6249 11.2402 92.6249 9.64262C92.6249 8.04502 92.9192 6.67865 93.5078 5.54351C94.0963 4.40837 94.9162 3.54651 95.9672 2.95792C97.0323 2.36933 98.2725 2.07503 99.688 2.07503C101.103 2.07503 102.337 2.36933 103.388 2.95792C104.453 3.54651 105.28 4.40837 105.868 5.54351C106.457 6.67865 106.751 8.04502 106.751 9.64262C106.751 11.016 106.534 12.2212 106.099 13.2582C105.665 14.2813 105.041 15.1151 104.229 15.7598L104.271 15.8649ZM96.4087 9.64262C96.4087 10.9459 96.6889 11.969 97.2495 12.7117C97.8101 13.4404 98.6229 13.8048 99.688 13.8048C100.753 13.8048 101.566 13.4404 102.126 12.7117C102.687 11.969 102.967 10.9459 102.967 9.64262C102.967 8.33931 102.687 7.3233 102.126 6.59456C101.566 5.85182 100.753 5.48045 99.688 5.48045C98.6229 5.48045 97.8101 5.85182 97.2495 6.59456C96.6889 7.3233 96.4087 8.33931 96.4087 9.64262ZM111.703 17.2102C110.989 17.2102 110.323 17.049 109.706 16.7267C109.104 16.3904 108.613 15.8859 108.235 15.2132C107.856 14.5405 107.667 13.6997 107.667 12.6907V5.7327H111.115V12.1441C111.115 12.7748 111.269 13.2653 111.577 13.6156C111.9 13.966 112.341 14.1411 112.902 14.1411C113.448 14.1411 113.882 13.966 114.205 13.6156C114.541 13.2512 114.709 12.7607 114.709 12.1441V5.7327H118.157V17H115.13L114.814 15.8649H114.709C113.925 16.7618 112.923 17.2102 111.703 17.2102ZM124.64 5.52249C126.21 5.52249 127.429 5.90087 128.298 6.65763C129.181 7.40037 129.622 8.48646 129.622 9.9159V17H126.595L126.28 15.8649H126.175C125.908 16.2152 125.523 16.5305 125.019 16.8108C124.514 17.0771 123.904 17.2102 123.19 17.2102C122.377 17.2102 121.669 17.0561 121.067 16.7477C120.478 16.4394 120.023 16.019 119.7 15.4865C119.392 14.9539 119.238 14.3513 119.238 13.6787C119.238 12.6556 119.616 11.8218 120.373 11.1772C121.13 10.5325 122.23 10.2102 123.673 10.2102H126.238V9.74773C126.238 9.32731 126.091 8.99097 125.796 8.73872C125.502 8.48646 125.103 8.36034 124.598 8.36034C124.192 8.36034 123.855 8.43741 123.589 8.59157C123.337 8.74572 123.155 8.96294 123.043 9.24322H119.658C119.854 8.19217 120.366 7.30928 121.193 6.59456C122.034 5.87985 123.183 5.52249 124.64 5.52249ZM124.052 14.4775C124.71 14.4775 125.236 14.3093 125.628 13.973C126.035 13.6226 126.238 13.1742 126.238 12.6276V12.3754H123.904C123.484 12.3754 123.162 12.4665 122.937 12.6486C122.727 12.8308 122.622 13.0831 122.622 13.4054C122.622 13.7137 122.741 13.973 122.979 14.1832C123.218 14.3794 123.575 14.4775 124.052 14.4775ZM135.599 17.2102C134.113 17.2102 132.922 16.7057 132.025 15.6967C131.142 14.6877 130.701 13.2442 130.701 11.3664C130.701 9.48847 131.142 8.04502 132.025 7.03601C132.922 6.027 134.113 5.52249 135.599 5.52249C136.215 5.52249 136.769 5.64161 137.259 5.87985C137.764 6.11809 138.163 6.41238 138.458 6.76273H138.563V2.28524H142.01V17H138.983L138.668 15.8649H138.563C137.82 16.7618 136.832 17.2102 135.599 17.2102ZM136.355 14.1411C137.014 14.1411 137.547 13.9099 137.953 13.4474C138.359 12.971 138.563 12.2773 138.563 11.3664C138.563 10.4554 138.359 9.76875 137.953 9.30628C137.547 8.82981 137.014 8.59157 136.355 8.59157C135.697 8.59157 135.164 8.82981 134.758 9.30628C134.351 9.76875 134.148 10.4554 134.148 11.3664C134.148 12.2773 134.351 12.971 134.758 13.4474C135.164 13.9099 135.697 14.1411 136.355 14.1411ZM143.753 17V5.7327H146.78L147.095 6.86784H147.2C147.495 6.47545 147.873 6.18816 148.335 6.00598C148.798 5.82379 149.274 5.7327 149.765 5.7327H151.32V9.01199H149.975C149.092 9.01199 148.406 9.25023 147.915 9.72671C147.439 10.1892 147.2 10.8829 147.2 11.8078V17H143.753ZM156.6 5.52249C158.169 5.52249 159.388 5.90087 160.257 6.65763C161.14 7.40037 161.582 8.48646 161.582 9.9159V17H158.555L158.239 15.8649H158.134C157.868 16.2152 157.482 16.5305 156.978 16.8108C156.473 17.0771 155.864 17.2102 155.149 17.2102C154.336 17.2102 153.629 17.0561 153.026 16.7477C152.437 16.4394 151.982 16.019 151.66 15.4865C151.351 14.9539 151.197 14.3513 151.197 13.6787C151.197 12.6556 151.576 11.8218 152.332 11.1772C153.089 10.5325 154.189 10.2102 155.633 10.2102H158.197V9.74773C158.197 9.32731 158.05 8.99097 157.756 8.73872C157.461 8.48646 157.062 8.36034 156.558 8.36034C156.151 8.36034 155.815 8.43741 155.549 8.59157C155.296 8.74572 155.114 8.96294 155.002 9.24322H151.618C151.814 8.19217 152.325 7.30928 153.152 6.59456C153.993 5.87985 155.142 5.52249 156.6 5.52249ZM156.011 14.4775C156.67 14.4775 157.195 14.3093 157.588 13.973C157.994 13.6226 158.197 13.1742 158.197 12.6276V12.3754H155.864C155.443 12.3754 155.121 12.4665 154.897 12.6486C154.687 12.8308 154.582 13.0831 154.582 13.4054C154.582 13.7137 154.701 13.973 154.939 14.1832C155.177 14.3794 155.535 14.4775 156.011 14.4775ZM167.671 17C166.353 17 165.393 16.7197 164.791 16.1592C164.188 15.5846 163.887 14.7157 163.887 13.5525V8.84382H162.1V5.7327H163.887L164.433 2.78975H167.334V5.7327H169.962V8.84382H167.334V12.9009C167.334 13.1952 167.418 13.4334 167.587 13.6156C167.755 13.7978 167.979 13.8889 168.259 13.8889H169.962V17H167.671ZM174.746 17H171.299V5.7327H174.746V17ZM173.022 4.61858C172.462 4.61858 171.999 4.44341 171.635 4.09306C171.271 3.72869 171.089 3.28024 171.089 2.74771C171.089 2.21517 171.271 1.77373 171.635 1.42338C171.999 1.05901 172.462 0.876831 173.022 0.876831C173.583 0.876831 174.045 1.05901 174.41 1.42338C174.774 1.77373 174.956 2.21517 174.956 2.74771C174.956 3.28024 174.774 3.72869 174.41 4.09306C174.045 4.44341 173.583 4.61858 173.022 4.61858ZM181.588 17.2102C179.808 17.2102 178.421 16.7057 177.426 15.6967C176.431 14.6737 175.933 13.2302 175.933 11.3664C175.933 9.50248 176.431 8.06604 177.426 7.05703C178.421 6.034 179.808 5.52249 181.588 5.52249C183.199 5.52249 184.44 5.95693 185.308 6.8258C186.191 7.68065 186.752 8.7247 186.99 9.95794H183.543C183.346 9.50949 183.087 9.17315 182.765 8.94893C182.457 8.71069 182.043 8.59157 181.525 8.59157C180.894 8.59157 180.376 8.82981 179.969 9.30628C179.577 9.78276 179.381 10.4695 179.381 11.3664C179.381 12.2632 179.577 12.9499 179.969 13.4264C180.376 13.9029 180.894 14.1411 181.525 14.1411C182.043 14.1411 182.457 14.029 182.765 13.8048C183.087 13.5666 183.346 13.2232 183.543 12.7748H186.99C186.752 14.008 186.191 15.0591 185.308 15.9279C184.44 16.7828 183.199 17.2102 181.588 17.2102ZM106.646 34H102.694L101.874 31.5195H96.4087L95.6099 34H91.742L96.9342 19.2852H101.454L106.646 34ZM99.0783 23.2582L97.4387 28.3453H100.844L99.1835 23.2582H99.0783ZM111.874 34.2102C110.094 34.2102 108.707 33.7057 107.712 32.6967C106.717 31.6737 106.219 30.2302 106.219 28.3664C106.219 26.5025 106.717 25.066 107.712 24.057C108.707 23.034 110.094 22.5225 111.874 22.5225C113.486 22.5225 114.726 22.9569 115.595 23.8258C116.478 24.6807 117.038 25.7247 117.277 26.9579H113.829C113.633 26.5095 113.374 26.1732 113.051 25.9489C112.743 25.7107 112.33 25.5916 111.811 25.5916C111.18 25.5916 110.662 25.8298 110.255 26.3063C109.863 26.7828 109.667 27.4695 109.667 28.3664C109.667 29.2632 109.863 29.9499 110.255 30.4264C110.662 30.9029 111.18 31.1411 111.811 31.1411C112.33 31.1411 112.743 31.029 113.051 30.8048C113.374 30.5666 113.633 30.2232 113.829 29.7748H117.277C117.038 31.008 116.478 32.0591 115.595 32.9279C114.726 33.7828 113.486 34.2102 111.874 34.2102ZM123.232 34.2102C121.452 34.2102 120.065 33.7057 119.07 32.6967C118.075 31.6737 117.577 30.2302 117.577 28.3664C117.577 26.5025 118.075 25.066 119.07 24.057C120.065 23.034 121.452 22.5225 123.232 22.5225C124.844 22.5225 126.084 22.9569 126.953 23.8258C127.836 24.6807 128.396 25.7247 128.634 26.9579H125.187C124.991 26.5095 124.732 26.1732 124.409 25.9489C124.101 25.7107 123.688 25.5916 123.169 25.5916C122.538 25.5916 122.02 25.8298 121.613 26.3063C121.221 26.7828 121.025 27.4695 121.025 28.3664C121.025 29.2632 121.221 29.9499 121.613 30.4264C122.02 30.9029 122.538 31.1411 123.169 31.1411C123.688 31.1411 124.101 31.029 124.409 30.8048C124.732 30.5666 124.991 30.2232 125.187 29.7748H128.634C128.396 31.008 127.836 32.0591 126.953 32.9279C126.084 33.7828 124.844 34.2102 123.232 34.2102ZM140.203 28.2823C140.203 28.6606 140.168 29.025 140.098 29.3754H132.299C132.411 30.034 132.656 30.5385 133.034 30.8889C133.413 31.2392 133.91 31.4144 134.527 31.4144C135.102 31.4144 135.529 31.3233 135.809 31.1411C136.104 30.959 136.342 30.7137 136.524 30.4054H139.992C139.74 31.4004 139.18 32.2833 138.311 33.0541C137.456 33.8248 136.237 34.2102 134.653 34.2102C132.845 34.2102 131.437 33.7057 130.428 32.6967C129.433 31.6737 128.935 30.2302 128.935 28.3664C128.935 26.5025 129.44 25.066 130.449 24.057C131.458 23.034 132.859 22.5225 134.653 22.5225C135.816 22.5225 136.811 22.7747 137.638 23.2792C138.479 23.7838 139.117 24.4775 139.551 25.3603C139.985 26.2292 140.203 27.2032 140.203 28.2823ZM137.007 27.2102C136.909 26.6777 136.657 26.2292 136.251 25.8648C135.844 25.4865 135.312 25.2973 134.653 25.2973C134.036 25.2973 133.525 25.4584 133.119 25.7808C132.712 26.1031 132.439 26.5796 132.299 27.2102H137.007ZM145.261 34C143.943 34 142.983 33.7197 142.381 33.1592C141.778 32.5846 141.477 31.7157 141.477 30.5525V19.2852H144.924V29.9009C144.924 30.1952 145.008 30.4334 145.176 30.6156C145.345 30.7978 145.569 30.8889 145.849 30.8889H147.51V34H145.261ZM158.854 28.2823C158.854 28.6606 158.819 29.025 158.749 29.3754H150.95C151.062 30.034 151.307 30.5385 151.686 30.8889C152.064 31.2392 152.562 31.4144 153.178 31.4144C153.753 31.4144 154.18 31.3233 154.461 31.1411C154.755 30.959 154.993 30.7137 155.175 30.4054H158.644C158.391 31.4004 157.831 32.2833 156.962 33.0541C156.107 33.8248 154.888 34.2102 153.304 34.2102C151.497 34.2102 150.088 33.7057 149.079 32.6967C148.084 31.6737 147.587 30.2302 147.587 28.3664C147.587 26.5025 148.091 25.066 149.1 24.057C150.109 23.034 151.511 22.5225 153.304 22.5225C154.468 22.5225 155.463 22.7747 156.289 23.2792C157.13 23.7838 157.768 24.4775 158.202 25.3603C158.637 26.2292 158.854 27.2032 158.854 28.2823ZM155.659 27.2102C155.561 26.6777 155.308 26.2292 154.902 25.8648C154.496 25.4865 153.963 25.2973 153.304 25.2973C152.688 25.2973 152.176 25.4584 151.77 25.7808C151.363 26.1031 151.09 26.5796 150.95 27.2102H155.659ZM160.023 34V22.7327H163.05L163.365 23.8678H163.47C163.765 23.4754 164.143 23.1882 164.605 23.006C165.068 22.8238 165.544 22.7327 166.035 22.7327H167.59V26.012H166.245C165.362 26.012 164.676 26.2502 164.185 26.7267C163.709 27.1892 163.47 27.8829 163.47 28.8078V34H160.023ZM172.87 22.5225C174.439 22.5225 175.658 22.9009 176.527 23.6576C177.41 24.4004 177.852 25.4865 177.852 26.9159V34H174.825L174.509 32.8649H174.404C174.138 33.2152 173.752 33.5305 173.248 33.8108C172.743 34.0771 172.134 34.2102 171.419 34.2102C170.606 34.2102 169.899 34.0561 169.296 33.7477C168.707 33.4394 168.252 33.019 167.93 32.4865C167.621 31.9539 167.467 31.3513 167.467 30.6787C167.467 29.6556 167.846 28.8218 168.602 28.1772C169.359 27.5325 170.459 27.2102 171.903 27.2102H174.467V26.7477C174.467 26.3273 174.32 25.991 174.026 25.7387C173.731 25.4865 173.332 25.3603 172.828 25.3603C172.421 25.3603 172.085 25.4374 171.819 25.5916C171.566 25.7457 171.384 25.9629 171.272 26.2432H167.888C168.084 25.1922 168.595 24.3093 169.422 23.5946C170.263 22.8798 171.412 22.5225 172.87 22.5225ZM172.281 31.4775C172.94 31.4775 173.465 31.3093 173.858 30.973C174.264 30.6226 174.467 30.1742 174.467 29.6276V29.3754H172.134C171.713 29.3754 171.391 29.4665 171.167 29.6486C170.957 29.8308 170.852 30.0831 170.852 30.4054C170.852 30.7137 170.971 30.973 171.209 31.1832C171.447 31.3794 171.804 31.4775 172.281 31.4775ZM183.941 34C182.623 34 181.663 33.7197 181.061 33.1592C180.458 32.5846 180.157 31.7157 180.157 30.5525V25.8438H178.37V22.7327H180.157L180.703 19.7897H183.604V22.7327H186.232V25.8438H183.604V29.9009C183.604 30.1952 183.688 30.4334 183.857 30.6156C184.025 30.7978 184.249 30.8889 184.529 30.8889H186.232V34H183.941ZM192.453 34.2102C190.673 34.2102 189.286 33.7057 188.291 32.6967C187.296 31.6737 186.798 30.2302 186.798 28.3664C186.798 26.5025 187.296 25.066 188.291 24.057C189.286 23.034 190.673 22.5225 192.453 22.5225C194.233 22.5225 195.62 23.034 196.615 24.057C197.61 25.066 198.108 26.5025 198.108 28.3664C198.108 30.2302 197.61 31.6737 196.615 32.6967C195.62 33.7057 194.233 34.2102 192.453 34.2102ZM192.453 31.1411C193.112 31.1411 193.644 30.9099 194.051 30.4474C194.457 29.971 194.66 29.2773 194.66 28.3664C194.66 27.4554 194.457 26.7687 194.051 26.3063C193.644 25.8298 193.112 25.5916 192.453 25.5916C191.794 25.5916 191.262 25.8298 190.855 26.3063C190.449 26.7687 190.246 27.4554 190.246 28.3664C190.246 29.2773 190.449 29.971 190.855 30.4474C191.262 30.9099 191.794 31.1411 192.453 31.1411ZM199.276 34V22.7327H202.303L202.618 23.8678H202.723C203.017 23.4754 203.396 23.1882 203.858 23.006C204.321 22.8238 204.797 22.7327 205.288 22.7327H206.843V26.012H205.498C204.615 26.012 203.928 26.2502 203.438 26.7267C202.961 27.1892 202.723 27.8829 202.723 28.8078V34H199.276Z" fill="#F6F6F6"/>
</svg>
