<svg width="1159" height="580" viewBox="0 0 1159 580" fill="none" xmlns="http://www.w3.org/2000/svg">
<path d="M579.25 288.603C540.424 192.736 445.109 1 374.461 1C350.403 1 332.667 23.233 319.765 56.3428M579.25 288.603C541.693 385.486 448.154 579.25 374.461 579.25C349.737 579.25 331.691 557.441 318.702 524.797M579.25 288.603C526.367 225.381 423.51 120.465 319.765 56.3428M579.25 288.603C526.638 352.982 423.467 460.141 318.702 524.797M579.25 288.603C618.076 192.736 713.391 1 784.039 1C808.097 1 825.834 23.233 838.735 56.3428M579.25 288.603C616.807 385.486 710.346 579.25 784.039 579.25C808.763 579.25 826.809 557.441 839.798 524.797M579.25 288.603C632.133 225.381 734.99 120.465 838.735 56.3428M579.25 288.603C631.862 352.982 735.033 460.141 839.798 524.797M319.765 56.3428C294.78 120.465 287.932 225.381 288.434 288.603C287.085 352.982 292.975 460.141 318.702 524.797M319.765 56.3428C266.196 23.233 212.39 1 165.104 1C26.2437 1 -1.8736 192.736 1.42536 288.603C-2.88882 385.486 23.8071 579.25 165.104 579.25C212.509 579.25 265.809 557.441 318.702 524.797M838.735 56.3428C863.72 120.465 870.568 225.381 870.066 288.603C871.415 352.982 865.525 460.141 839.798 524.797M838.735 56.3428C892.304 23.233 946.11 1 993.396 1C1132.26 1 1160.37 192.736 1157.07 288.603C1161.39 385.486 1134.69 579.25 993.396 579.25C945.991 579.25 892.691 557.441 839.798 524.797M579.25 3.625V573.625" stroke="#C6C6C6" stroke-opacity="0.35" stroke-width="1.5"/>
</svg>
